<svg width="2000" height="1400" xmlns="http://www.w3.org/2000/svg"><defs><linearGradient id="a" gradientTransform="rotate(90)"><stop offset="5%" stop-color="#f67280"/><stop offset="95%" stop-color="#f8959f"/></linearGradient><linearGradient id="b" gradientTransform="rotate(90)"><stop offset="5%" stop-color="#c06c84"/><stop offset="95%" stop-color="#cf90a2"/></linearGradient><linearGradient id="c" gradientTransform="rotate(90)"><stop offset="5%" stop-color="#6c5b7b"/><stop offset="95%" stop-color="#90849c"/></linearGradient><linearGradient id="d" gradientTransform="rotate(90)"><stop offset="5%" stop-color="#355c7d"/><stop offset="95%" stop-color="#67849d"/></linearGradient></defs><path fill="#f8b195" d="M0 0h2000v1400H0z"/><path d="M0 280c54.59-8.924 109.18-17.847 157-33 47.82-15.153 88.873-36.535 135-17 46.127 19.535 97.33 79.988 143 91s85.809-27.419 129-39 89.435 3.686 137 10 96.451 3.676 147 14c50.549 10.324 102.76 33.611 155 7 52.24-26.611 104.51-103.122 151-96 46.49 7.122 87.197 97.875 130 106s87.701-66.378 132-89c44.299-22.622 87.998 6.637 140 10 52.002 3.363 112.308-19.172 166-5 53.692 14.172 100.769 65.049 146 78 45.231 12.951 88.615-12.025 172-37l-40 1120H0Z" fill="url(#a)"/><path d="M0 560c45.6 15.229 91.2 30.458 143 13s109.8-67.602 157-74c47.2-6.398 83.602 30.952 129 65 45.398 34.048 99.793 64.796 149 57 49.207-7.796 93.227-54.134 139-77 45.773-22.866 93.298-22.26 139-23 45.702-.74 89.583-2.829 141 13s110.372 49.575 159 53c48.628 3.425 86.928-23.47 134-15 47.072 8.47 102.917 52.308 148 40s79.404-80.763 125-83c45.596-2.237 102.468 61.744 153 85s94.723 5.787 141-10c46.277-15.787 94.638-29.894 183-44l-40 840H0Z" fill="url(#b)"/><path d="M0 840c46.135-20.577 92.27-41.154 142-38 49.73 3.154 103.052 30.038 150 40 46.948 9.962 87.521 3.003 134-19s98.862-59.05 150-40c51.138 19.05 101.029 94.198 152 112 50.971 17.802 103.022-21.74 144-39 40.978-17.26 70.884-12.236 115-22s102.44-34.317 152-27 90.353 46.503 136 37c45.647-9.503 96.146-67.696 144-52 47.854 15.696 93.064 105.28 140 106 46.936.72 95.598-87.421 144-113 48.402-25.579 96.543 11.406 146 31 49.457 19.594 100.228 21.797 191 24l-40 560H0Z" fill="url(#c)"/><path d="M0 1120c43.567-27.848 87.133-55.696 139-61 51.867-5.304 112.034 11.938 156 21 43.966 9.062 71.732 9.946 118 24s111.04 41.28 163 37c51.96-4.28 91.112-40.063 134-60 42.888-19.937 89.515-24.027 136 0s92.83 76.17 145 70c52.17-6.17 110.167-70.655 161-68 50.833 2.655 94.501 72.449 139 67 44.499-5.449 89.827-86.14 136-88 46.173-1.86 93.19 75.11 144 101s105.41.701 153-22 88.169-42.915 133-46c44.831-3.085 93.916 10.957 183 25l-40 280H0Z" fill="url(#d)"/></svg>